<svg xmlns="http://www.w3.org/2000/svg" width="53" height="53"><defs><clipPath id="wlcca"><path fill="#fff" d="M26.433 16.581l9.468 5.363V32.67l-9.468 5.362-9.47-5.362V21.944z"/></clipPath><clipPath id="wlccb"><path fill="#fff" d="M26.266 7.875c10.398 0 18.828 8.437 18.828 18.844 0 10.407-8.43 18.843-18.828 18.843-10.399 0-18.829-8.436-18.829-18.843s8.43-18.844 18.829-18.844z"/></clipPath><clipPath id="wlccc"><path fill="#fff" d="M.985 33.475C-2.754 19.523 5.535 5.18 19.498 1.438c13.964-3.74 28.314 4.536 32.052 18.488C55.29 33.878 47 48.222 33.036 51.963 19.073 55.703 4.723 47.427.985 33.475z"/></clipPath></defs><path fill="none" stroke="#1f65d9" stroke-miterlimit="50" stroke-width="6" d="M26.433 16.581v0l9.468 5.363V32.67l-9.468 5.362v0l-9.47-5.362v0-10.726 0z" clip-path="url(&quot;#wlcca&quot;)"/><path fill="none" stroke="#1f65d9" stroke-miterlimit="50" stroke-width="6" d="M26.266 7.875c10.398 0 18.828 8.437 18.828 18.844 0 10.407-8.43 18.843-18.828 18.843-10.399 0-18.829-8.436-18.829-18.843s8.43-18.844 18.829-18.844z" clip-path="url(&quot;#wlccb&quot;)"/><path fill="none" stroke="#1f65d9" stroke-miterlimit="50" stroke-width="6" d="M.985 33.475C-2.754 19.523 5.535 5.18 19.498 1.438c13.964-3.74 28.314 4.536 32.052 18.488C55.29 33.878 47 48.222 33.036 51.963 19.073 55.703 4.723 47.427.985 33.475z" clip-path="url(&quot;#wlccc&quot;)"/></svg>